<?xml version="1.0" encoding="UTF-8" ?>
<!DOCTYPE svg PUBLIC "-//W3C//DTD SVG 1.1//EN" "http://www.w3.org/Graphics/SVG/1.1/DTD/svg11.dtd">
<svg width="29pt" height="48pt" viewBox="0 0 29 48" version="1.1" xmlns="http://www.w3.org/2000/svg">
<g id="#a9a9a9ff">
<path fill="#a9a9a9" opacity="1.00" d=" M 7.27 1.17 C 9.69 -0.56 13.14 0.55 15.98 0.22 C 18.14 0.40 21.68 -0.44 22.32 2.41 C 22.82 9.26 23.47 16.14 23.52 23.02 C 23.17 23.35 22.49 24.02 22.15 24.35 C 17.13 25.20 11.90 25.35 6.88 24.40 C 6.51 24.03 5.79 23.31 5.43 22.94 C 5.44 16.94 6.03 10.95 6.29 4.95 C 6.55 3.71 6.12 2.06 7.27 1.17 Z" />
<path fill="#a9a9a9" opacity="1.00" d=" M 0.00 14.88 C 0.78 14.82 2.33 14.70 3.10 14.64 C 2.79 18.55 4.18 22.97 1.82 26.43 C 1.37 22.66 1.63 18.83 0.95 15.08 L 0.00 17.52 L 0.00 14.88 Z" />
<path fill="#a9a9a9" opacity="1.00" d=" M 25.87 14.86 C 26.65 14.85 28.22 14.82 29.00 14.81 L 29.00 15.33 C 28.67 15.87 28.01 16.95 27.68 17.49 C 27.50 19.97 27.55 22.47 27.45 24.96 C 26.75 26.39 26.29 27.92 25.68 29.40 C 22.74 30.98 19.34 30.69 16.12 30.71 C 15.65 33.60 15.78 36.52 16.31 39.39 C 20.10 40.71 23.88 42.07 27.63 43.50 C 27.71 44.88 27.80 46.26 27.90 47.63 C 25.61 47.78 25.67 46.01 25.77 44.30 C 24.40 43.87 23.03 43.44 21.66 43.00 C 21.96 44.66 22.24 46.33 22.48 48.00 L 20.59 48.00 C 20.40 46.26 20.88 43.93 18.62 43.39 C 15.23 41.74 7.63 42.16 8.60 47.53 L 8.48 48.00 L 6.81 48.00 C 6.50 46.68 7.47 44.57 5.93 43.88 C 3.66 43.64 3.66 46.61 2.70 48.00 L 2.05 48.00 C 2.15 47.95 2.36 47.86 2.47 47.81 C 1.85 46.46 1.49 45.03 1.37 43.54 C 5.21 42.15 9.05 40.73 12.88 39.29 C 13.19 36.45 13.30 33.60 13.13 30.75 C 9.65 30.72 6.00 30.82 2.83 29.14 C 2.77 28.22 2.66 26.37 2.61 25.44 C 10.37 25.49 18.13 25.45 25.89 25.45 C 25.83 21.92 25.83 18.39 25.87 14.86 Z" />
</g>
</svg>
