<?xml version="1.0" encoding="UTF-8" ?>
<!DOCTYPE svg PUBLIC "-//W3C//DTD SVG 1.1//EN" "http://www.w3.org/Graphics/SVG/1.1/DTD/svg11.dtd">
<svg width="34pt" height="34pt" viewBox="0 0 34 34" version="1.1" xmlns="http://www.w3.org/2000/svg">
<g id="#00a368ff">
<path fill="#00a368" opacity="1.00" d=" M 15.52 0.00 L 18.18 0.00 C 26.35 0.48 33.32 7.39 34.00 15.51 L 34.00 18.18 C 33.52 26.35 26.61 33.32 18.48 34.00 L 15.81 34.00 C 7.65 33.52 0.68 26.61 0.00 18.49 L 0.00 15.83 C 0.47 7.65 7.39 0.68 15.52 0.00 M 10.02 7.98 C 10.01 8.48 10.00 9.49 9.99 9.99 C 15.00 10.00 20.00 10.00 25.01 9.99 C 25.02 9.49 25.04 8.48 25.05 7.98 C 20.04 7.97 15.03 7.96 10.02 7.98 M 9.97 12.00 C 9.97 12.50 9.99 13.49 10.00 13.99 C 11.66 13.99 13.33 13.99 15.00 13.99 C 15.00 13.49 15.00 12.50 14.99 12.00 C 13.32 12.00 11.64 12.00 9.97 12.00 M 9.98 16.01 C 9.98 16.51 9.98 17.52 9.98 18.02 C 13.98 18.03 17.98 18.03 21.98 18.02 C 21.99 17.52 22.00 16.51 22.00 16.01 C 18.00 16.00 13.99 16.00 9.98 16.01 M 10.00 20.01 C 10.00 20.50 10.00 21.50 10.00 21.99 C 11.67 21.99 13.33 22.00 15.00 22.00 C 15.00 21.50 15.00 20.51 15.00 20.01 C 13.33 20.01 11.66 20.01 10.00 20.01 M 9.97 24.01 C 9.99 24.54 10.02 25.58 10.04 26.10 C 15.05 26.12 20.05 26.13 25.06 26.10 C 25.05 25.58 25.02 24.53 25.01 24.01 C 20.00 24.00 14.98 24.00 9.97 24.01 Z" />
</g>
<g id="#f0faf6ff">
<path fill="#f0faf6" opacity="1.00" d=" M 10.02 7.98 C 15.03 7.96 20.04 7.97 25.05 7.98 C 25.04 8.48 25.02 9.49 25.01 9.99 C 20.00 10.00 15.00 10.00 9.99 9.99 C 10.00 9.49 10.01 8.48 10.02 7.98 Z" />
<path fill="#f0faf6" opacity="1.00" d=" M 9.97 12.00 C 11.64 12.00 13.32 12.00 14.99 12.00 C 15.00 12.50 15.00 13.49 15.00 13.99 C 13.33 13.99 11.66 13.99 10.00 13.99 C 9.99 13.49 9.97 12.50 9.97 12.00 Z" />
<path fill="#f0faf6" opacity="1.00" d=" M 9.98 16.01 C 13.99 16.00 18.00 16.00 22.00 16.01 C 22.00 16.51 21.99 17.52 21.98 18.02 C 17.98 18.03 13.98 18.03 9.98 18.02 C 9.98 17.52 9.98 16.51 9.98 16.01 Z" />
<path fill="#f0faf6" opacity="1.00" d=" M 10.00 20.01 C 11.66 20.01 13.33 20.01 15.00 20.01 C 15.00 20.51 15.00 21.50 15.00 22.00 C 13.33 22.00 11.67 21.99 10.00 21.99 C 10.00 21.50 10.00 20.50 10.00 20.01 Z" />
<path fill="#f0faf6" opacity="1.00" d=" M 9.97 24.01 C 14.98 24.00 20.00 24.00 25.01 24.01 C 25.02 24.53 25.05 25.58 25.06 26.10 C 20.05 26.13 15.05 26.12 10.04 26.10 C 10.02 25.58 9.99 24.54 9.97 24.01 Z" />
</g>
</svg>
