<?xml version="1.0" encoding="UTF-8" ?>
<!DOCTYPE svg PUBLIC "-//W3C//DTD SVG 1.1//EN" "http://www.w3.org/Graphics/SVG/1.1/DTD/svg11.dtd">
<svg width="72pt" height="66pt" viewBox="0 0 72 66" version="1.1" xmlns="http://www.w3.org/2000/svg">
<g id="#b8b8b8fe">
<path fill="#b8b8b8" opacity="1.00" d=" M 7.90 0.61 C 18.29 0.39 28.69 0.51 39.09 0.52 C 40.61 0.23 41.50 1.67 42.49 2.51 C 45.62 5.65 48.75 8.79 51.88 11.92 C 51.87 13.84 51.86 15.76 51.81 17.68 C 47.50 15.08 42.43 15.99 37.65 15.88 C 37.65 11.70 37.65 7.53 37.68 3.36 C 28.78 3.37 19.89 3.23 11.00 3.41 C 10.81 5.02 10.80 6.65 10.72 8.27 C 10.08 8.29 8.79 8.33 8.14 8.35 C 7.99 5.77 7.92 3.19 7.90 0.61 M 40.50 4.47 C 40.49 7.36 40.49 10.25 40.57 13.14 C 43.44 13.12 46.30 13.13 49.16 13.14 C 46.32 10.21 43.42 7.33 40.50 4.47 Z" />
<path fill="#b8b8b8" opacity="1.00" d=" M 24.31 6.39 C 27.20 5.42 30.79 5.37 33.66 6.51 C 35.15 9.00 34.49 12.23 34.32 15.00 C 33.70 17.75 30.17 17.14 28.05 17.23 C 26.00 17.43 22.92 16.80 23.19 14.11 C 23.41 11.64 22.24 8.25 24.31 6.39 Z" />
<path fill="#b8b8b8" opacity="1.00" d=" M 0.00 15.57 C 3.15 14.03 6.31 12.51 9.48 11.00 C 14.54 21.17 19.23 31.51 24.28 41.68 C 27.05 46.76 25.47 52.75 25.84 58.26 C 21.86 54.24 16.65 51.06 14.39 45.66 C 9.66 35.61 4.80 25.63 0.00 15.62 L 0.00 15.57 M 2.34 16.78 C 2.97 17.67 3.63 18.53 4.33 19.35 C 6.26 18.53 8.14 17.59 10.04 16.68 C 9.55 15.64 9.06 14.61 8.55 13.58 C 6.46 14.61 4.37 15.64 2.34 16.78 M 22.93 47.63 C 22.31 47.28 21.08 46.58 20.46 46.23 C 20.41 46.94 20.31 48.37 20.26 49.09 C 19.30 48.74 17.37 48.06 16.41 47.72 C 18.39 49.97 20.59 52.01 22.87 53.96 C 26.30 51.95 24.18 47.40 24.60 44.21 C 24.03 45.34 23.47 46.48 22.93 47.63 Z" />
<path fill="#b8b8b8" opacity="1.00" d=" M 24.39 20.80 C 26.96 19.90 29.90 20.22 32.57 20.52 C 34.93 21.24 34.47 24.04 34.56 25.96 C 34.44 27.87 34.98 30.79 32.58 31.45 C 30.10 31.84 27.54 31.80 25.07 31.46 C 22.67 30.87 23.16 27.87 23.06 26.01 C 23.21 24.28 22.68 21.91 24.39 20.80 M 24.86 22.17 C 24.78 24.72 24.78 27.27 24.86 29.82 C 27.48 29.92 30.10 29.93 32.71 29.79 C 32.76 27.26 32.76 24.72 32.69 22.19 C 30.08 22.09 27.47 22.09 24.86 22.17 Z" />
<path fill="#b8b8b8" opacity="1.00" d=" M 38.83 24.91 C 38.60 22.46 40.21 19.74 42.92 19.87 C 50.98 19.68 59.05 19.80 67.11 19.82 C 69.16 19.61 70.67 21.15 72.00 22.46 L 72.00 66.00 L 38.76 66.00 C 38.90 52.30 38.74 38.60 38.83 24.91 M 41.06 26.00 C 41.09 38.61 41.09 51.23 41.07 63.84 C 50.69 63.86 60.32 63.86 69.94 63.84 C 69.87 50.88 69.97 37.92 69.89 24.97 C 70.26 23.23 68.76 21.95 67.10 22.21 C 59.06 22.19 51.01 21.97 42.98 22.21 C 40.70 21.90 41.15 24.55 41.06 26.00 Z" />
<path fill="#b8b8b8" opacity="1.00" d=" M 43.61 25.92 C 51.55 26.01 59.49 25.71 67.42 26.13 C 67.43 28.96 67.43 31.78 67.43 34.61 C 59.47 34.65 51.52 34.64 43.56 34.62 C 43.57 31.72 43.57 28.82 43.61 25.92 M 54.44 29.12 C 54.95 30.46 55.47 31.80 56.00 33.13 C 56.45 31.54 56.57 29.90 56.61 28.26 C 55.89 28.55 55.17 28.84 54.44 29.12 M 57.48 30.03 C 63.15 26.94 58.53 30.81 57.81 32.28 C 58.56 32.42 60.06 32.68 60.81 32.82 C 60.62 31.36 60.77 29.93 61.28 28.53 C 59.77 28.35 58.04 28.11 57.48 30.03 M 61.28 29.55 L 63.67 29.22 C 63.59 30.21 63.43 32.19 63.35 33.17 C 63.79 32.82 64.67 32.10 65.11 31.75 C 64.61 30.56 65.25 27.68 63.13 28.41 C 62.67 28.70 61.75 29.27 61.28 29.55 Z" />
<path fill="#b8b8b8" opacity="1.00" d=" M 43.49 40.79 C 43.54 39.82 43.60 38.85 43.65 37.88 C 47.17 37.89 50.68 37.88 54.20 37.89 C 54.21 38.88 54.22 39.86 54.22 40.85 C 50.65 40.86 47.07 40.88 43.49 40.79 Z" />
<path fill="#b8b8b8" opacity="1.00" d=" M 56.80 40.84 C 56.80 39.86 56.81 38.88 56.82 37.89 C 60.36 37.87 63.91 37.81 67.45 38.04 C 67.44 38.74 67.42 40.13 67.41 40.82 C 63.87 40.85 60.33 40.85 56.80 40.84 Z" />
<path fill="#b8b8b8" opacity="1.00" d=" M 7.94 39.86 C 9.09 42.12 10.82 44.31 10.79 46.96 C 10.90 52.46 10.75 57.96 10.81 63.46 C 19.43 63.40 28.04 63.63 36.66 63.55 C 36.67 64.16 36.70 65.39 36.72 66.00 L 8.07 66.00 C 7.98 57.29 8.16 48.57 7.94 39.86 Z" />
<path fill="#b8b8b8" opacity="1.00" d=" M 43.71 43.42 C 45.14 43.42 46.58 43.43 48.02 43.45 C 48.04 44.90 48.05 46.35 48.06 47.80 C 46.61 47.82 45.16 47.84 43.71 47.86 C 43.71 46.38 43.71 44.90 43.71 43.42 Z" />
<path fill="#b8b8b8" opacity="1.00" d=" M 49.97 43.45 C 51.43 43.42 52.89 43.40 54.35 43.38 C 54.35 44.87 54.35 46.35 54.34 47.84 C 52.88 47.84 51.41 47.83 49.94 47.81 C 49.95 46.36 49.96 44.90 49.97 43.45 Z" />
<path fill="#b8b8b8" opacity="1.00" d=" M 56.47 43.43 C 57.92 43.43 59.36 43.43 60.81 43.43 C 60.80 44.90 60.79 46.37 60.78 47.83 C 59.34 47.84 57.91 47.85 56.48 47.85 C 56.48 46.38 56.47 44.91 56.47 43.43 Z" />
<path fill="#b8b8b8" opacity="1.00" d=" M 63.20 43.42 C 64.62 43.42 66.03 43.43 67.45 43.44 C 67.44 44.91 67.43 46.37 67.42 47.84 C 66.02 47.85 64.63 47.85 63.24 47.85 C 63.23 46.37 63.21 44.89 63.20 43.42 Z" />
<path fill="#b8b8b8" opacity="1.00" d=" M 43.64 49.66 C 45.11 49.66 46.58 49.67 48.05 49.69 C 48.00 51.20 47.95 52.71 47.90 54.22 C 46.50 54.22 45.09 54.22 43.69 54.22 C 43.67 52.70 43.65 51.18 43.64 49.66 Z" />
<path fill="#b8b8b8" opacity="1.00" d=" M 49.92 49.73 C 51.39 49.68 52.86 49.65 54.34 49.62 C 54.34 51.15 54.34 52.68 54.34 54.21 C 52.93 54.21 51.51 54.21 50.10 54.21 C 50.04 52.71 49.98 51.22 49.92 49.73 Z" />
<path fill="#b8b8b8" opacity="1.00" d=" M 62.86 49.71 C 64.33 49.68 65.81 49.65 67.28 49.64 C 67.28 51.16 67.28 52.69 67.28 54.22 C 65.90 54.23 64.51 54.23 63.13 54.24 C 63.03 52.73 62.95 51.22 62.86 49.71 Z" />
<path fill="#b8b8b8" opacity="1.00" d=" M 56.41 49.67 C 57.47 49.66 59.60 49.66 60.66 49.65 C 60.65 51.17 60.64 52.69 60.63 54.21 C 59.57 54.21 57.46 54.21 56.41 54.21 C 56.41 52.70 56.41 51.18 56.41 49.67 Z" />
<path fill="#b8b8b8" opacity="1.00" d=" M 43.55 56.14 C 44.94 56.08 46.33 56.01 47.72 55.95 C 47.76 57.46 47.80 58.97 47.84 60.49 C 46.42 60.49 45.00 60.49 43.58 60.49 C 43.57 59.04 43.56 57.59 43.55 56.14 Z" />
<path fill="#b8b8b8" opacity="1.00" d=" M 49.82 56.08 C 51.23 56.05 52.65 56.02 54.06 56.13 C 54.22 57.57 54.21 59.03 54.25 60.47 C 52.78 60.48 51.30 60.48 49.83 60.47 C 49.83 59.01 49.82 57.54 49.82 56.08 Z" />
<path fill="#b8b8b8" opacity="1.00" d=" M 56.48 56.08 C 57.91 56.08 59.34 56.08 60.77 56.08 C 60.79 57.54 60.80 59.00 60.82 60.46 C 59.37 60.47 57.92 60.48 56.47 60.48 C 56.47 59.01 56.48 57.55 56.48 56.08 Z" />
<path fill="#b8b8b8" opacity="1.00" d=" M 63.09 55.93 C 64.49 55.99 65.89 56.06 67.30 56.13 C 67.30 57.58 67.30 59.03 67.30 60.49 C 65.88 60.49 64.47 60.49 63.05 60.49 C 63.06 58.97 63.07 57.45 63.09 55.93 Z" />
</g>
</svg>
