<?xml version="1.0" encoding="UTF-8" ?>
<!DOCTYPE svg PUBLIC "-//W3C//DTD SVG 1.1//EN" "http://www.w3.org/Graphics/SVG/1.1/DTD/svg11.dtd">
<svg width="18pt" height="19pt" viewBox="0 0 18 19" version="1.1" xmlns="http://www.w3.org/2000/svg">
<g id="#008253cc">
<path fill="#008253" opacity="0.80" d=" M 2.10 0.24 C 2.65 0.60 3.76 1.32 4.31 1.69 C 9.40 -1.29 16.22 1.54 18.00 7.08 L 18.00 13.23 C 17.48 13.11 16.44 12.86 15.92 12.74 C 16.03 10.45 16.69 7.91 15.15 5.90 C 13.27 2.76 9.12 1.63 5.82 3.11 C 6.26 3.70 7.16 4.89 7.61 5.48 C 5.80 5.54 3.98 5.62 2.19 5.36 C 2.15 3.65 2.12 1.95 2.10 0.24 Z" />
<path fill="#008253" opacity="0.80" d=" M 0.00 6.57 C 0.53 6.55 1.58 6.51 2.11 6.49 C 2.39 8.70 1.41 11.26 2.87 13.20 C 4.58 16.41 9.10 17.87 12.26 15.97 C 11.80 15.41 10.90 14.30 10.45 13.74 C 12.25 13.71 14.06 13.67 15.86 13.81 C 16.00 15.54 15.97 17.27 16.06 19.00 L 16.04 19.00 C 15.46 18.65 14.30 17.95 13.72 17.60 C 8.50 20.83 1.38 17.44 0.00 11.63 L 0.00 6.57 Z" />
</g>
</svg>
