<?xml version="1.0" encoding="UTF-8" ?>
<!DOCTYPE svg PUBLIC "-//W3C//DTD SVG 1.1//EN" "http://www.w3.org/Graphics/SVG/1.1/DTD/svg11.dtd">
<svg width="14pt" height="27pt" viewBox="0 0 14 27" version="1.1" xmlns="http://www.w3.org/2000/svg">
<g id="#39579dff">
<path fill="#39579d" opacity="1.00" d=" M 6.55 1.55 C 8.56 -0.32 11.50 0.26 14.00 0.12 L 14.00 4.48 C 12.50 4.71 10.50 4.17 9.68 5.87 C 9.60 7.27 9.57 8.68 9.59 10.09 C 11.06 10.09 12.53 10.09 14.00 10.09 L 14.00 14.58 C 12.54 14.66 11.07 14.74 9.61 14.82 C 9.61 18.88 9.61 22.94 9.58 27.00 L 4.66 27.00 C 4.62 22.91 4.64 18.83 4.60 14.74 C 3.54 14.74 1.41 14.74 0.34 14.75 C 0.40 13.14 0.43 11.53 0.45 9.92 C 1.84 9.91 3.22 9.91 4.61 9.90 C 4.67 7.07 4.17 3.64 6.55 1.55 Z" />
</g>
</svg>
