<?xml version="1.0" encoding="UTF-8" ?>
<!DOCTYPE svg PUBLIC "-//W3C//DTD SVG 1.1//EN" "http://www.w3.org/Graphics/SVG/1.1/DTD/svg11.dtd">
<svg width="26pt" height="27pt" viewBox="0 0 26 27" version="1.1" xmlns="http://www.w3.org/2000/svg">
<g id="#ea4335ff">
<path fill="#ea4335" opacity="1.00" d=" M 1.39 7.38 C 3.56 3.45 7.52 0.42 12.11 0.14 C 15.76 -0.35 19.20 1.24 22.18 3.19 C 20.97 4.47 19.76 5.74 18.57 7.02 C 14.09 3.93 7.60 5.67 5.61 10.82 C 4.21 9.66 2.80 8.52 1.39 7.38 Z" />
</g>
<g id="#fbbc05ff">
<path fill="#fbbc05" opacity="1.00" d=" M 0.00 13.27 C 0.16 11.25 0.69 9.28 1.39 7.38 C 2.80 8.52 4.21 9.66 5.61 10.82 C 5.39 12.53 5.40 14.25 5.62 15.96 C 4.21 17.09 2.78 18.20 1.35 19.31 C 0.71 17.50 0.21 15.64 0.00 13.73 L 0.00 13.27 Z" />
</g>
<g id="#4285f4ff">
<path fill="#4285f4" opacity="1.00" d=" M 13.42 11.03 C 17.61 10.86 21.81 10.87 26.00 11.11 L 26.00 15.90 C 25.34 18.71 24.04 21.33 22.05 23.42 C 20.69 22.35 19.32 21.29 17.95 20.24 C 19.18 19.10 20.09 17.69 20.83 16.19 C 18.37 16.11 15.90 16.12 13.44 16.11 C 13.44 14.42 13.44 12.72 13.42 11.03 Z" />
</g>
<g id="#34a853ff">
<path fill="#34a853" opacity="1.00" d=" M 1.35 19.31 C 2.78 18.20 4.21 17.09 5.62 15.96 C 7.56 20.76 13.45 22.70 17.95 20.24 C 19.32 21.29 20.69 22.35 22.05 23.42 C 15.87 29.20 4.93 26.90 1.35 19.31 Z" />
</g>
</svg>
