<?xml version="1.0" encoding="UTF-8" ?>
<!DOCTYPE svg PUBLIC "-//W3C//DTD SVG 1.1//EN" "http://www.w3.org/Graphics/SVG/1.1/DTD/svg11.dtd">
<svg width="21pt" height="19pt" viewBox="0 0 21 19" version="1.1" xmlns="http://www.w3.org/2000/svg">
<g id="#dee3ffff">
<path fill="#dee3ff" opacity="1.00" d=" M 10.76 0.00 L 11.31 0.00 C 11.07 3.46 14.93 6.66 18.27 6.75 C 16.51 8.50 14.76 10.25 13.01 12.00 C 13.00 10.17 12.22 8.60 11.04 7.25 C 7.49 10.87 4.71 15.61 0.00 17.82 L 0.00 16.44 C 3.07 12.78 6.73 9.69 10.27 6.50 C 9.00 5.55 7.53 5.03 5.95 4.86 C 7.53 3.22 9.08 1.54 10.76 0.00 Z" />
<path fill="#dee3ff" opacity="1.00" d=" M 7.18 19.00 C 7.65 18.46 8.59 17.38 9.06 16.84 C 13.02 17.05 17.34 15.91 21.00 17.90 L 21.00 19.00 L 7.18 19.00 Z" />
</g>
</svg>
