<?xml version="1.0" encoding="UTF-8" ?>
<!DOCTYPE svg PUBLIC "-//W3C//DTD SVG 1.1//EN" "http://www.w3.org/Graphics/SVG/1.1/DTD/svg11.dtd">
<svg width="21pt" height="19pt" viewBox="0 0 21 19" version="1.1" xmlns="http://www.w3.org/2000/svg">
<g id="#b7bbd3d3">
<path fill="#b7bbd3" opacity="0.83" d=" M 8.03 0.00 L 11.95 0.00 C 14.43 0.73 16.70 2.12 17.95 4.47 C 14.31 3.46 10.51 0.67 6.67 2.58 C 1.88 4.55 0.29 11.37 3.84 15.17 C 6.56 18.52 11.91 18.99 15.13 16.10 C 17.90 14.08 17.25 9.87 20.13 7.96 C 20.45 12.37 18.42 16.65 14.66 19.00 L 5.27 19.00 C 2.77 17.31 0.84 14.88 0.00 11.97 L 0.00 7.97 C 1.01 4.05 4.08 0.95 8.03 0.00 Z" />
<path fill="#b7bbd3" opacity="0.83" d=" M 3.77 8.03 C 4.99 3.07 12.54 1.75 15.14 6.30 C 12.20 6.25 8.33 4.16 6.24 7.35 C 3.68 10.56 7.34 15.61 11.17 14.26 C 14.18 13.78 13.79 9.58 16.58 8.76 C 16.67 12.17 14.65 15.92 10.98 16.31 C 6.44 17.30 2.18 12.37 3.77 8.03 Z" />
<path fill="#b7bbd3" opacity="0.83" d=" M 10.55 9.07 C 13.88 7.64 16.74 5.44 19.64 3.33 C 19.54 3.87 19.35 4.96 19.25 5.50 C 19.69 5.85 20.56 6.55 21.00 6.90 L 21.00 7.00 C 17.43 7.99 13.76 8.68 10.47 10.46 C 10.00 9.38 9.52 8.31 8.99 7.26 C 8.88 8.73 8.77 10.21 8.82 11.68 C 9.98 11.46 12.29 11.00 13.45 10.78 C 12.00 11.97 9.76 14.20 8.01 12.12 C 5.11 9.86 8.48 6.93 10.83 6.17 C 10.76 6.89 10.62 8.34 10.55 9.07 Z" />
</g>
</svg>
