<?xml version="1.0" encoding="UTF-8" ?>
<!DOCTYPE svg PUBLIC "-//W3C//DTD SVG 1.1//EN" "http://www.w3.org/Graphics/SVG/1.1/DTD/svg11.dtd">
<svg width="24pt" height="16pt" viewBox="0 0 24 16" version="1.1" xmlns="http://www.w3.org/2000/svg">
<g id="#dee3ffff">
<path fill="#dee3ff" opacity="1.00" d=" M 12.02 0.00 L 12.68 0.00 C 15.73 0.16 15.89 3.34 16.28 5.65 C 15.68 7.05 15.10 8.47 14.53 9.88 C 15.77 10.53 17.08 11.09 18.23 11.90 C 19.08 13.05 18.75 14.66 19.03 16.00 L 6.35 16.00 C 3.93 13.01 8.19 10.87 10.51 9.84 C 9.91 8.50 9.27 7.18 8.60 5.88 C 9.18 3.61 9.08 0.43 12.02 0.00 Z" />
<path fill="#dee3ff" opacity="1.00" d=" M 2.96 2.93 C 3.46 2.57 4.47 1.85 4.97 1.49 C 5.65 1.85 7.01 2.56 7.69 2.91 C 7.81 5.46 7.52 8.00 7.34 10.54 C 6.33 11.89 5.43 13.33 4.63 14.81 C 3.08 14.66 1.54 14.50 0.00 14.33 L 0.00 11.72 C 1.20 10.80 2.47 9.98 3.72 9.14 C 3.36 8.48 2.64 7.17 2.28 6.51 C 2.45 5.62 2.79 3.83 2.96 2.93 Z" />
<path fill="#dee3ff" opacity="1.00" d=" M 15.94 8.49 C 17.01 6.22 17.40 1.42 21.03 2.64 C 22.68 4.07 22.89 6.45 23.81 8.33 C 22.83 8.79 21.85 9.26 20.87 9.74 C 21.92 10.35 22.98 10.95 24.00 11.60 L 24.00 14.31 C 22.62 14.42 21.24 14.54 19.86 14.65 C 19.25 13.23 18.62 11.83 17.96 10.44 C 18.10 10.14 18.38 9.53 18.52 9.23 C 17.88 9.04 16.59 8.67 15.94 8.49 Z" />
</g>
</svg>
