<?xml version="1.0" encoding="UTF-8" ?>
<!DOCTYPE svg PUBLIC "-//W3C//DTD SVG 1.1//EN" "http://www.w3.org/Graphics/SVG/1.1/DTD/svg11.dtd">
<svg width="24pt" height="15pt" viewBox="0 0 24 15" version="1.1" xmlns="http://www.w3.org/2000/svg">
<g id="#dee3ffff">
<path fill="#dee3ff" opacity="1.00" d=" M 19.74 0.00 L 21.18 0.00 C 20.38 1.95 18.69 3.75 16.73 4.51 C 16.38 2.34 19.62 1.89 19.74 0.00 Z" />
<path fill="#dee3ff" opacity="1.00" d=" M 10.77 7.99 C 12.13 6.20 13.48 4.39 14.92 2.66 C 16.40 4.20 17.92 5.70 19.46 7.18 C 20.84 5.66 22.05 3.81 24.00 2.99 L 24.00 5.11 L 23.59 4.25 C 22.71 5.65 21.55 6.77 20.12 7.60 C 20.53 8.17 20.96 8.72 21.39 9.27 C 19.58 10.59 17.94 12.12 16.17 13.49 C 14.73 13.49 13.52 12.77 12.46 11.88 C 11.84 12.57 10.61 13.97 9.99 14.67 C 9.46 14.07 8.90 13.50 8.30 12.96 C 9.19 12.54 10.96 11.71 11.84 11.29 C 11.57 10.47 11.04 8.81 10.77 7.99 Z" />
<path fill="#dee3ff" opacity="1.00" d=" M 0.00 5.58 C 2.41 4.09 6.56 2.88 8.18 6.04 C 9.14 8.74 4.89 9.46 5.40 12.08 C 6.57 12.96 7.72 13.84 8.88 14.73 L 6.30 14.65 C 2.34 12.77 4.78 8.84 7.17 7.03 C 6.10 3.71 2.22 6.03 0.00 6.64 L 0.00 5.58 Z" />
</g>
</svg>
