<?xml version="1.0" encoding="UTF-8" ?>
<!DOCTYPE svg PUBLIC "-//W3C//DTD SVG 1.1//EN" "http://www.w3.org/Graphics/SVG/1.1/DTD/svg11.dtd">
<svg width="24pt" height="19pt" viewBox="0 0 24 19" version="1.1" xmlns="http://www.w3.org/2000/svg">
<g id="#dde2fdfd">
<path fill="#dde2fd" opacity="1.00" d=" M 20.46 0.00 L 21.08 0.00 C 22.28 1.41 23.77 2.99 23.27 5.02 C 23.12 8.10 18.48 7.60 17.70 5.14 C 16.29 2.99 18.47 0.67 20.46 0.00 M 19.45 2.45 C 17.67 3.41 19.63 6.44 21.02 4.92 C 22.90 4.18 21.03 1.46 19.45 2.45 Z" />
<path fill="#dde2fd" opacity="1.00" d=" M 11.32 7.56 C 12.14 6.83 12.97 6.10 13.81 5.39 C 14.61 7.21 16.36 7.83 18.19 7.16 C 17.97 9.23 18.40 11.08 20.41 12.07 C 19.69 12.70 18.96 13.33 18.24 13.96 C 18.25 14.79 18.27 16.43 18.28 17.25 C 16.44 16.16 14.72 17.09 13.95 18.91 C 12.42 17.65 10.86 16.00 8.73 17.20 C 8.77 16.37 8.83 14.73 8.87 13.90 C 8.02 13.35 7.18 12.79 6.34 12.24 C 8.40 11.16 9.51 9.40 8.78 7.04 C 9.42 7.17 10.68 7.43 11.32 7.56 M 10.59 12.03 C 11.21 15.28 16.08 15.60 16.30 11.96 C 15.72 8.62 11.37 9.06 10.59 12.03 Z" />
<path fill="#dde2fd" opacity="1.00" d=" M 0.77 11.69 C 0.12 9.88 0.52 8.14 1.49 6.54 C 2.16 6.42 3.51 6.17 4.18 6.05 C 4.79 6.37 6.00 7.01 6.61 7.33 C 6.83 8.02 7.27 9.41 7.49 10.11 C 6.45 11.47 5.26 12.71 3.58 13.22 C 2.65 12.69 1.72 12.18 0.77 11.69 M 2.65 8.60 C 1.16 9.51 3.67 12.21 4.64 10.62 C 6.66 9.73 3.81 6.82 2.65 8.60 Z" />
</g>
</svg>
