<?xml version="1.0" encoding="UTF-8" ?>
<!DOCTYPE svg PUBLIC "-//W3C//DTD SVG 1.1//EN" "http://www.w3.org/Graphics/SVG/1.1/DTD/svg11.dtd">
<svg width="20pt" height="20pt" viewBox="0 0 20 20" version="1.1" xmlns="http://www.w3.org/2000/svg">
<g id="#dee3ffff">
<path fill="#dee3ff" opacity="1.00" d=" M 7.66 0.00 L 9.49 0.00 C 14.38 1.57 17.88 5.58 19.99 10.12 L 20.00 9.07 L 20.00 12.47 C 19.29 10.85 18.51 9.26 17.86 7.62 C 17.42 8.03 16.97 8.43 16.53 8.84 L 17.16 11.57 C 16.08 10.08 15.34 8.39 14.79 6.66 C 15.41 6.86 16.63 7.26 17.24 7.46 C 16.16 5.51 14.55 3.83 12.57 2.75 C 12.77 3.34 13.15 4.51 13.35 5.10 C 11.76 4.59 10.18 4.03 8.62 3.44 C 10.02 3.15 11.42 2.83 12.80 2.43 C 11.08 1.65 9.39 0.77 7.66 0.00 Z" />
<path fill="#dee3ff" opacity="1.00" d=" M 0.10 6.01 C -0.24 3.37 1.92 1.48 4.25 0.86 C 5.19 2.47 6.11 4.10 7.04 5.72 C 6.15 6.70 5.24 7.68 4.49 8.78 C 6.04 11.88 8.73 14.16 11.76 15.75 C 12.35 15.05 13.53 13.64 14.12 12.94 C 15.93 13.92 17.71 14.97 19.49 16.01 C 18.50 17.87 17.15 19.57 14.98 20.00 L 14.23 20.00 C 7.27 18.88 1.25 12.96 0.10 6.01 Z" />
<path fill="#dee3ff" opacity="1.00" d=" M 13.35 5.10 C 13.51 5.32 13.83 5.77 13.99 5.99 L 13.33 5.80 L 13.35 5.10 Z" />
<path fill="#dee3ff" opacity="1.00" d=" M 10.22 5.96 C 11.86 5.10 15.55 8.93 13.61 9.87 C 12.63 8.53 10.54 7.56 10.22 5.96 Z" />
<path fill="#dee3ff" opacity="1.00" d=" M 13.99 5.99 C 14.19 6.16 14.59 6.49 14.79 6.66 L 14.15 6.65 L 13.99 5.99 Z" />
</g>
</svg>
