<?xml version="1.0" encoding="UTF-8" ?>
<!DOCTYPE svg PUBLIC "-//W3C//DTD SVG 1.1//EN" "http://www.w3.org/Graphics/SVG/1.1/DTD/svg11.dtd">
<svg width="19pt" height="19pt" viewBox="0 0 19 19" version="1.1" xmlns="http://www.w3.org/2000/svg">
<g id="#b1b5cbcb">
<path fill="#b1b5cb" opacity="0.80" d=" M 12.52 5.85 C 14.77 4.10 16.24 1.25 19.00 0.26 L 19.00 2.04 C 16.86 4.01 14.73 6.01 12.70 8.11 C 11.10 6.85 9.54 5.52 8.04 4.13 C 5.42 5.90 3.06 8.17 0.00 9.16 L 0.00 7.66 C 2.69 5.79 5.40 3.94 8.07 2.04 C 9.58 3.29 11.07 4.55 12.52 5.85 Z" />
<path fill="#b1b5cb" opacity="0.80" d=" M 6.68 6.92 C 7.24 7.02 8.36 7.23 8.92 7.34 C 9.37 11.20 8.94 15.12 9.08 19.00 L 6.59 19.00 C 6.59 14.97 6.49 10.94 6.68 6.92 Z" />
<path fill="#b1b5cb" opacity="0.80" d=" M 15.31 7.19 C 15.91 7.16 17.11 7.11 17.71 7.09 C 17.91 11.06 17.78 15.03 17.81 19.00 L 15.30 19.00 C 15.27 15.06 15.24 11.13 15.31 7.19 Z" />
<path fill="#b1b5cb" opacity="0.80" d=" M 1.80 9.87 C 2.42 9.85 3.65 9.81 4.26 9.80 C 4.29 12.86 4.30 15.93 4.28 19.00 L 1.79 19.00 C 1.76 15.96 1.77 12.91 1.80 9.87 Z" />
<path fill="#b1b5cb" opacity="0.80" d=" M 11.23 9.88 C 11.80 9.85 12.93 9.77 13.50 9.74 C 13.55 12.82 13.55 15.91 13.53 19.00 L 11.16 19.00 C 10.90 15.98 10.63 12.88 11.23 9.88 Z" />
</g>
</svg>
