<?xml version="1.0" encoding="UTF-8" ?>
<!DOCTYPE svg PUBLIC "-//W3C//DTD SVG 1.1//EN" "http://www.w3.org/Graphics/SVG/1.1/DTD/svg11.dtd">
<svg width="16pt" height="19pt" viewBox="0 0 16 19" version="1.1" xmlns="http://www.w3.org/2000/svg">
<g id="#d1d5f0f0">
<path fill="#d1d5f0" opacity="0.94" d=" M 1.88 0.00 L 14.26 0.00 C 14.32 0.00 14.42 0.00 14.47 0.00 L 16.00 0.00 L 16.00 17.22 C 14.70 17.19 14.13 17.78 14.27 19.00 L 1.77 19.00 C 1.76 17.84 1.17 17.21 0.00 17.09 L 0.00 1.57 C 1.20 1.87 1.83 1.34 1.88 0.00 M 1.81 1.61 C 1.56 6.86 1.65 12.11 1.75 17.35 C 5.88 17.32 10.00 17.36 14.13 17.32 C 14.20 12.11 14.24 6.90 14.11 1.69 C 10.01 1.63 5.91 1.69 1.81 1.61 Z" />
<path fill="#d1d5f0" opacity="0.94" d=" M 3.19 3.13 C 6.35 3.12 9.52 3.11 12.68 3.13 C 12.68 3.56 12.68 4.40 12.68 4.82 C 9.52 4.86 6.36 4.84 3.20 4.83 C 3.20 4.40 3.19 3.55 3.19 3.13 Z" />
<path fill="#d1d5f0" opacity="0.94" d=" M 3.14 7.86 C 4.80 7.35 5.36 7.89 4.82 9.47 C 3.18 9.98 2.62 9.44 3.14 7.86 Z" />
<path fill="#d1d5f0" opacity="0.94" d=" M 6.38 7.79 C 8.02 7.42 8.53 8.02 7.89 9.58 C 6.23 9.95 5.73 9.35 6.38 7.79 Z" />
<path fill="#d1d5f0" opacity="0.94" d=" M 9.88 8.42 C 11.21 7.60 12.04 7.81 12.36 9.03 C 11.05 9.88 10.22 9.68 9.88 8.42 Z" />
<path fill="#d1d5f0" opacity="0.94" d=" M 6.29 11.07 C 7.87 10.48 8.45 11.00 8.03 12.64 C 6.45 13.23 5.87 12.71 6.29 11.07 Z" />
<path fill="#d1d5f0" opacity="0.94" d=" M 9.24 12.74 C 9.05 10.38 11.57 11.25 13.05 11.07 C 12.92 13.23 10.72 12.64 9.24 12.74 Z" />
<path fill="#d1d5f0" opacity="0.94" d=" M 9.12 14.25 C 10.43 14.24 11.74 14.24 13.05 14.26 C 13.14 16.63 9.07 16.55 9.12 14.25 Z" />
</g>
<g id="#8f92a4a4">
<path fill="#8f92a4" opacity="0.64" d=" M 3.16 11.08 C 4.78 10.56 5.34 11.10 4.84 12.73 C 3.19 13.25 2.63 12.70 3.16 11.08 Z" />
<path fill="#8f92a4" opacity="0.64" d=" M 3.15 14.18 C 4.79 13.66 5.34 14.22 4.82 15.85 C 3.19 16.37 2.64 15.81 3.15 14.18 Z" />
<path fill="#8f92a4" opacity="0.64" d=" M 6.27 14.16 C 7.90 13.66 8.45 14.22 7.91 15.85 C 6.29 16.37 5.74 15.81 6.27 14.16 Z" />
</g>
</svg>
