<?xml version="1.0" encoding="UTF-8" ?>
<!DOCTYPE svg PUBLIC "-//W3C//DTD SVG 1.1//EN" "http://www.w3.org/Graphics/SVG/1.1/DTD/svg11.dtd">
<svg width="34pt" height="34pt" viewBox="0 0 34 34" version="1.1" xmlns="http://www.w3.org/2000/svg">
<g id="#ffffffff">
<path fill="#ffffff" opacity="1.00" d=" M 12.07 1.11 C 20.21 -1.70 29.70 3.53 32.56 11.47 C 37.00 21.62 28.09 34.65 16.98 33.94 C 5.48 34.93 -3.55 21.46 1.14 11.06 C 3.05 6.29 7.18 2.64 12.07 1.11 M 12.07 9.62 C 12.22 9.82 12.51 10.21 12.66 10.41 C 14.79 11.18 17.17 10.61 19.39 10.85 C 18.09 13.30 14.90 11.64 12.79 12.19 C 14.70 13.36 16.99 13.29 19.11 13.74 C 17.47 14.21 15.82 14.62 14.14 14.92 C 15.16 15.63 16.16 16.38 17.19 17.07 C 16.37 19.16 15.56 21.26 14.71 23.34 C 15.63 23.35 17.47 23.38 18.39 23.39 C 18.92 21.86 19.42 20.32 19.95 18.79 C 20.11 18.60 20.44 18.21 20.60 18.02 C 21.22 19.83 21.83 21.65 22.48 23.45 C 23.37 23.41 25.15 23.33 26.03 23.29 C 27.31 19.57 28.66 15.87 30.06 12.19 C 28.94 12.17 27.83 12.15 26.71 12.12 C 26.01 13.95 25.16 15.70 24.23 17.43 C 24.02 16.75 23.61 15.41 23.40 14.73 C 22.75 13.02 22.09 11.30 21.43 9.59 C 18.31 9.53 15.19 9.45 12.07 9.62 M 10.55 10.47 C 8.07 14.74 5.53 18.98 3.19 23.33 C 7.74 24.21 8.49 19.13 10.58 16.41 C 11.03 16.46 11.95 16.56 12.41 16.61 C 11.76 17.86 11.11 19.11 10.46 20.36 C 12.19 20.43 13.91 20.49 15.64 20.53 C 16.09 16.82 13.47 13.41 11.22 10.73 L 10.55 10.47 Z" />
</g>
<g id="#d26900ff">
<path fill="#d26900" opacity="1.00" d=" M 12.07 9.62 C 15.19 9.45 18.31 9.53 21.43 9.59 C 22.09 11.30 22.75 13.02 23.40 14.73 C 22.47 15.83 21.54 16.93 20.60 18.02 C 20.44 18.21 20.11 18.60 19.95 18.79 C 19.03 18.22 18.10 17.66 17.19 17.07 C 16.16 16.38 15.16 15.63 14.14 14.92 C 15.82 14.62 17.47 14.21 19.11 13.74 C 16.99 13.29 14.70 13.36 12.79 12.19 C 14.90 11.64 18.09 13.30 19.39 10.85 C 17.17 10.61 14.79 11.18 12.66 10.41 C 12.51 10.21 12.22 9.82 12.07 9.62 Z" />
</g>
<g id="#007fa3ff">
<path fill="#007fa3" opacity="1.00" d=" M 10.55 10.47 L 11.22 10.73 C 13.47 13.41 16.09 16.82 15.64 20.53 C 13.91 20.49 12.19 20.43 10.46 20.36 C 11.11 19.11 11.76 17.86 12.41 16.61 C 11.95 16.56 11.03 16.46 10.58 16.41 C 8.49 19.13 7.74 24.21 3.19 23.33 C 5.53 18.98 8.07 14.74 10.55 10.47 Z" />
</g>
<g id="#bf5b00ff">
<path fill="#bf5b00" opacity="1.00" d=" M 26.71 12.12 C 27.83 12.15 28.94 12.17 30.06 12.19 C 28.66 15.87 27.31 19.57 26.03 23.29 C 25.15 23.33 23.37 23.41 22.48 23.45 C 21.83 21.65 21.22 19.83 20.60 18.02 C 21.54 16.93 22.47 15.83 23.40 14.73 C 23.61 15.41 24.02 16.75 24.23 17.43 C 25.16 15.70 26.01 13.95 26.71 12.12 Z" />
</g>
<g id="#b74f07ff">
<path fill="#b74f07" opacity="1.00" d=" M 17.19 17.07 C 18.10 17.66 19.03 18.22 19.95 18.79 C 19.42 20.32 18.92 21.86 18.39 23.39 C 17.47 23.38 15.63 23.35 14.71 23.34 C 15.56 21.26 16.37 19.16 17.19 17.07 Z" />
</g>
</svg>
