<?xml version="1.0" encoding="UTF-8" ?>
<!DOCTYPE svg PUBLIC "-//W3C//DTD SVG 1.1//EN" "http://www.w3.org/Graphics/SVG/1.1/DTD/svg11.dtd">
<svg width="72pt" height="73pt" viewBox="0 0 72 73" version="1.1" xmlns="http://www.w3.org/2000/svg">
<g id="#b9b9b9ff">
<path fill="#b9b9b9" opacity="1.00" d=" M 0.00 13.55 C 4.21 9.00 8.48 4.45 13.20 0.42 C 15.29 -0.53 16.64 1.78 18.04 2.91 C 35.95 21.03 54.14 38.89 72.00 57.05 L 72.00 60.61 C 67.94 64.91 63.82 69.20 59.27 72.99 C 39.26 53.54 19.65 33.66 0.00 13.86 L 0.00 13.55 M 14.45 2.78 C 10.86 6.38 7.26 9.98 3.68 13.59 C 6.56 16.49 9.47 19.36 12.34 22.26 C 13.46 21.16 14.58 20.06 15.70 18.96 C 16.35 19.55 17.00 20.15 17.65 20.74 C 16.47 21.85 15.30 22.96 14.12 24.06 C 15.10 25.03 16.08 26.01 17.06 26.98 C 18.20 25.83 19.34 24.68 20.48 23.53 C 21.07 24.21 21.67 24.90 22.26 25.58 C 21.13 26.65 20.00 27.71 18.88 28.78 C 19.87 29.76 20.84 30.75 21.81 31.74 C 22.89 30.58 23.98 29.42 25.07 28.26 C 25.55 28.72 26.52 29.63 27.01 30.08 C 25.89 31.24 24.76 32.37 23.63 33.52 C 24.57 34.47 25.50 35.42 26.44 36.36 C 27.61 35.29 28.76 34.18 29.86 33.03 C 30.49 33.65 31.12 34.26 31.75 34.88 C 30.60 36.00 29.46 37.11 28.32 38.23 C 29.27 39.17 30.22 40.10 31.15 41.07 C 32.23 40.00 33.31 38.92 34.38 37.84 C 34.92 38.23 35.98 39.00 36.52 39.39 C 35.36 40.60 34.19 41.80 33.01 42.99 C 34.00 43.94 34.99 44.89 35.97 45.85 C 37.07 44.70 38.17 43.56 39.27 42.42 C 39.89 43.05 40.51 43.69 41.13 44.33 C 39.98 45.44 38.85 46.57 37.70 47.68 C 38.68 48.62 39.67 49.57 40.65 50.51 C 41.82 49.30 42.99 48.09 44.17 46.90 C 46.99 49.07 43.90 50.79 42.45 52.53 C 43.34 53.32 44.19 54.15 45.14 54.87 C 46.60 54.39 47.56 52.87 48.80 51.97 C 49.38 52.55 49.97 53.13 50.55 53.71 C 49.42 54.82 48.28 55.94 47.15 57.05 C 48.10 58.01 49.05 58.97 50.01 59.93 C 51.17 58.78 52.35 57.64 53.53 56.51 C 53.95 57.00 54.78 58.00 55.20 58.50 C 54.09 59.61 52.99 60.72 51.88 61.83 C 52.82 62.74 53.76 63.66 54.70 64.58 C 56.37 63.13 58.04 60.17 60.20 62.87 C 58.99 64.08 57.78 65.29 56.57 66.50 C 57.52 67.45 58.47 68.40 59.42 69.34 C 63.01 65.72 66.67 62.16 70.23 58.52 C 51.63 39.95 33.08 21.32 14.45 2.78 Z" />
<path fill="#b9b9b9" opacity="1.00" d=" M 55.53 4.04 C 57.32 2.77 58.71 0.39 61.01 0.16 C 65.29 2.83 68.47 6.95 72.00 10.52 L 72.00 14.04 C 71.03 15.22 69.99 16.33 68.97 17.46 C 64.46 13.01 60.01 8.52 55.53 4.04 Z" />
<path fill="#b9b9b9" opacity="1.00" d=" M 12.94 10.86 C 11.40 9.59 12.17 7.35 13.80 6.58 C 15.69 5.85 16.63 7.99 17.76 8.97 C 16.83 10.49 14.69 12.71 12.94 10.86 Z" />
<path fill="#b9b9b9" opacity="1.00" d=" M 38.64 21.17 C 43.49 16.35 48.31 11.51 53.15 6.67 C 57.57 11.07 61.97 15.50 66.40 19.90 C 61.50 24.69 56.67 29.55 51.86 34.42 C 47.47 29.99 43.04 25.60 38.64 21.17 Z" />
<path fill="#b9b9b9" opacity="1.00" d=" M 21.73 38.13 C 26.13 42.51 30.48 46.94 34.93 51.28 C 29.58 56.68 24.16 62.01 18.84 67.43 C 14.44 62.99 10.01 58.59 5.58 54.20 C 11.02 48.90 16.33 43.47 21.73 38.13 Z" />
<path fill="#b9b9b9" opacity="1.00" d=" M 4.53 55.33 C 8.95 59.70 13.30 64.14 17.74 68.48 C 11.86 69.94 6.07 71.88 0.08 72.88 C 1.14 66.94 3.06 61.18 4.53 55.33 Z" />
</g>
</svg>
