<?xml version="1.0" encoding="UTF-8" ?>
<!DOCTYPE svg PUBLIC "-//W3C//DTD SVG 1.1//EN" "http://www.w3.org/Graphics/SVG/1.1/DTD/svg11.dtd">
<svg width="73pt" height="63pt" viewBox="0 0 73 63" version="1.1" xmlns="http://www.w3.org/2000/svg">
<g id="#b9b9b9ff">
<path fill="#b9b9b9" opacity="1.00" d=" M 10.27 9.89 C 12.70 2.06 22.61 -1.34 29.90 1.43 C 33.92 2.66 37.09 5.79 38.72 9.62 C 33.30 9.58 27.51 11.86 24.82 16.82 C 23.14 19.41 23.35 22.58 23.87 25.48 C 22.23 25.17 20.59 24.85 18.95 24.53 C 17.37 25.41 15.78 26.28 14.18 27.13 C 14.51 26.08 15.16 23.97 15.49 22.92 C 11.48 20.04 8.53 14.88 10.27 9.89 Z" />
<path fill="#b9b9b9" opacity="1.00" d=" M 25.36 22.98 C 24.55 16.16 31.74 11.08 38.04 11.67 C 43.70 11.56 49.96 15.94 49.73 22.03 C 49.98 25.44 47.70 28.25 45.21 30.27 C 45.55 31.44 45.88 32.62 46.22 33.80 C 44.88 33.09 43.54 32.37 42.19 31.67 C 35.57 34.04 26.28 30.60 25.36 22.98 Z" />
<path fill="#b9b9b9" opacity="1.00" d=" M 14.20 28.29 C 17.00 27.03 20.39 27.23 23.04 28.79 C 26.01 31.95 26.58 36.63 26.65 40.77 C 24.81 44.26 23.35 49.23 18.84 49.90 C 13.43 50.39 11.01 44.13 9.46 40.03 C 10.35 35.97 9.57 30.28 14.20 28.29 Z" />
<path fill="#b9b9b9" opacity="1.00" d=" M 47.83 32.64 C 49.18 26.19 60.16 25.46 62.28 31.72 C 63.43 34.09 63.17 36.85 64.17 39.28 C 63.49 42.44 61.74 45.25 59.89 47.85 C 57.61 50.84 52.49 50.55 50.48 47.40 C 49.04 45.03 47.23 42.68 46.70 39.91 C 47.10 37.49 47.42 35.06 47.83 32.64 Z" />
<path fill="#b9b9b9" opacity="1.00" d=" M 3.64 51.51 C 6.05 49.56 9.06 48.62 11.88 47.45 C 13.66 48.92 15.41 51.05 17.98 50.78 C 20.69 51.09 22.63 48.97 24.58 47.47 C 27.26 48.67 30.15 49.60 32.49 51.44 C 35.27 53.81 35.79 57.62 36.17 61.02 C 33.19 61.90 30.16 62.66 27.07 63.00 L 9.67 63.00 C 6.41 62.73 3.22 61.95 0.07 61.09 C 0.34 57.68 1.02 53.95 3.64 51.51 Z" />
<path fill="#b9b9b9" opacity="1.00" d=" M 40.72 51.69 C 43.10 49.60 46.20 48.68 49.05 47.45 C 50.81 48.87 52.48 50.95 54.99 50.77 C 57.78 51.20 59.84 49.12 61.75 47.46 C 66.67 49.17 72.29 51.78 73.00 57.65 L 73.00 61.17 C 70.12 61.98 67.20 62.67 64.22 63.00 L 46.60 63.00 C 43.44 62.67 40.35 61.93 37.30 61.06 C 37.58 57.73 38.16 54.09 40.72 51.69 Z" />
</g>
</svg>
