<?xml version="1.0" encoding="UTF-8" ?>
<!DOCTYPE svg PUBLIC "-//W3C//DTD SVG 1.1//EN" "http://www.w3.org/Graphics/SVG/1.1/DTD/svg11.dtd">
<svg width="12pt" height="16pt" viewBox="0 0 12 16" version="1.1" xmlns="http://www.w3.org/2000/svg">
<g id="#ffffffff">
<path fill="#ffffff" opacity="1.00" d=" M 4.16 0.00 L 7.95 0.00 C 10.72 1.93 9.48 5.74 6.72 6.94 C 3.24 6.58 1.12 2.42 4.16 0.00 Z" />
<path fill="#ffffff" opacity="1.00" d=" M 0.43 8.83 C 1.54 8.06 2.66 7.28 3.78 6.50 C 7.56 8.35 4.23 12.95 5.78 15.99 C 4.46 15.79 1.83 15.39 0.51 15.19 C -0.27 13.18 0.06 10.90 0.43 8.83 Z" />
<path fill="#ffffff" opacity="1.00" d=" M 6.42 7.44 C 8.30 5.94 10.25 7.45 11.75 8.82 C 11.94 10.95 12.13 13.18 11.60 15.28 C 9.72 15.70 7.27 16.86 6.67 14.30 C 6.64 12.06 6.80 9.68 6.42 7.44 Z" />
</g>
</svg>
