<?xml version="1.0" encoding="UTF-8" ?>
<!DOCTYPE svg PUBLIC "-//W3C//DTD SVG 1.1//EN" "http://www.w3.org/Graphics/SVG/1.1/DTD/svg11.dtd">
<svg width="33pt" height="19pt" viewBox="0 0 33 19" version="1.1" xmlns="http://www.w3.org/2000/svg">
<g id="#5f83aaff">
<path fill="#5f83aa" opacity="1.00" d=" M 11.41 0.00 L 17.14 0.00 L 19.04 0.70 C 19.71 3.77 19.32 6.96 19.84 10.05 C 22.88 7.75 24.52 4.26 26.02 0.86 C 28.34 0.86 30.67 0.86 33.00 0.87 L 33.00 2.88 C 31.29 5.64 29.30 8.22 27.49 10.92 C 29.38 12.86 31.31 14.78 33.00 16.90 L 33.00 19.00 L 26.54 19.00 C 24.36 17.57 22.57 15.68 20.67 13.92 C 20.07 15.60 19.46 17.29 18.93 19.00 L 15.67 19.00 C 6.88 17.58 2.98 8.26 0.01 0.95 C 2.12 0.88 4.24 0.85 6.36 0.83 C 7.94 4.19 9.73 7.49 12.30 10.20 C 13.66 6.87 13.80 2.91 11.41 0.00 Z" />
</g>
</svg>
